<svg width="57" height="57" viewBox="0 0 57 57" fill="none" xmlns="http://www.w3.org/2000/svg">
<rect x="2" y="2" width="53" height="53" rx="2" fill="#0A9418" fill-opacity="0.75" stroke="#06600F" stroke-width="4"/>
<path d="M27 27.2373C27 28.0654 26.793 28.7998 26.3789 29.4404C25.9649 30.0811 25.3946 30.5928 24.668 30.9756C25.4961 31.374 26.1524 31.9248 26.6368 32.6279C27.1211 33.3232 27.3633 34.1436 27.3633 35.0889C27.3633 36.6045 26.8477 37.8037 25.8164 38.6865C24.7852 39.5615 23.3828 39.999 21.6094 39.999C19.836 39.999 18.4297 39.5576 17.3907 38.6748C16.3516 37.792 15.8321 36.5967 15.8321 35.0889C15.8321 34.1436 16.0743 33.3193 16.5586 32.6162C17.043 31.9131 17.6953 31.3662 18.5157 30.9756C17.7891 30.5928 17.2188 30.0811 16.8047 29.4404C16.3985 28.7998 16.1953 28.0654 16.1953 27.2373C16.1953 25.7842 16.6797 24.6279 17.6485 23.7686C18.6172 22.9014 19.9336 22.4678 21.5977 22.4678C23.2539 22.4678 24.5664 22.8975 25.5352 23.7568C26.5118 24.6084 27 25.7686 27 27.2373ZM23.9649 34.8428C23.9649 34.1006 23.75 33.5068 23.3203 33.0615C22.8907 32.6162 22.3125 32.3936 21.586 32.3936C20.8672 32.3936 20.293 32.6162 19.8633 33.0615C19.4336 33.499 19.2188 34.0928 19.2188 34.8428C19.2188 35.5693 19.4297 36.1553 19.8516 36.6006C20.2735 37.0459 20.8594 37.2686 21.6094 37.2686C22.3438 37.2686 22.918 37.0537 23.3321 36.624C23.7539 36.1943 23.9649 35.6006 23.9649 34.8428ZM23.6133 27.4014C23.6133 26.7373 23.4375 26.2061 23.086 25.8076C22.7344 25.4014 22.2383 25.1982 21.5977 25.1982C20.9649 25.1982 20.4727 25.3936 20.1211 25.7842C19.7696 26.1748 19.5938 26.7139 19.5938 27.4014C19.5938 28.0811 19.7696 28.6279 20.1211 29.042C20.4727 29.4561 20.9688 29.6631 21.6094 29.6631C22.25 29.6631 22.7422 29.4561 23.086 29.042C23.4375 28.6279 23.6133 28.0811 23.6133 27.4014ZM40.7813 27.2373C40.7813 28.0654 40.5743 28.7998 40.1602 29.4404C39.7461 30.0811 39.1758 30.5928 38.4493 30.9756C39.2774 31.374 39.9336 31.9248 40.418 32.6279C40.9024 33.3232 41.1446 34.1436 41.1446 35.0889C41.1446 36.6045 40.6289 37.8037 39.5977 38.6865C38.5664 39.5615 37.1641 39.999 35.3907 39.999C33.6172 39.999 32.211 39.5576 31.1719 38.6748C30.1328 37.792 29.6133 36.5967 29.6133 35.0889C29.6133 34.1436 29.8555 33.3193 30.3399 32.6162C30.8243 31.9131 31.4766 31.3662 32.2969 30.9756C31.5703 30.5928 31 30.0811 30.586 29.4404C30.1797 28.7998 29.9766 28.0654 29.9766 27.2373C29.9766 25.7842 30.461 24.6279 31.4297 23.7686C32.3985 22.9014 33.7149 22.4678 35.3789 22.4678C37.0352 22.4678 38.3477 22.8975 39.3164 23.7568C40.293 24.6084 40.7813 25.7686 40.7813 27.2373ZM37.7461 34.8428C37.7461 34.1006 37.5313 33.5068 37.1016 33.0615C36.6719 32.6162 36.0938 32.3936 35.3672 32.3936C34.6485 32.3936 34.0743 32.6162 33.6446 33.0615C33.2149 33.499 33 34.0928 33 34.8428C33 35.5693 33.211 36.1553 33.6328 36.6006C34.0547 37.0459 34.6407 37.2686 35.3907 37.2686C36.125 37.2686 36.6993 37.0537 37.1133 36.624C37.5352 36.1943 37.7461 35.6006 37.7461 34.8428ZM37.3946 27.4014C37.3946 26.7373 37.2188 26.2061 36.8672 25.8076C36.5157 25.4014 36.0196 25.1982 35.3789 25.1982C34.7461 25.1982 34.2539 25.3936 33.9024 25.7842C33.5508 26.1748 33.375 26.7139 33.375 27.4014C33.375 28.0811 33.5508 28.6279 33.9024 29.042C34.2539 29.4561 34.75 29.6631 35.3907 29.6631C36.0313 29.6631 36.5235 29.4561 36.8672 29.042C37.2188 28.6279 37.3946 28.0811 37.3946 27.4014Z" fill="white"/>
</svg>
