<svg width="60" height="60" viewBox="0 0 60 60" fill="none" xmlns="http://www.w3.org/2000/svg">
<rect x="2" y="2" width="56" height="56" rx="2" fill="#0A9418" fill-opacity="0.75" stroke="#06600F" stroke-width="4"/>
<path d="M28.5 28.1198C28.5 28.9479 28.293 29.6823 27.8789 30.3229C27.4648 30.9635 26.8945 31.4752 26.168 31.858C26.9961 32.2565 27.6523 32.8073 28.1367 33.5104C28.6211 34.2057 28.8633 35.026 28.8633 35.9713C28.8633 37.4869 28.3476 38.6862 27.3164 39.569C26.2851 40.444 24.8828 40.8815 23.1094 40.8815C21.3359 40.8815 19.9297 40.4401 18.8906 39.5573C17.8516 38.6744 17.332 37.4791 17.332 35.9713C17.332 35.026 17.5742 34.2018 18.0586 33.4987C18.543 32.7955 19.1953 32.2487 20.0156 31.858C19.2891 31.4752 18.7187 30.9635 18.3047 30.3229C17.8984 29.6823 17.6953 28.9479 17.6953 28.1198C17.6953 26.6666 18.1797 25.5104 19.1484 24.651C20.1172 23.7838 21.4336 23.3502 23.0976 23.3502C24.7539 23.3502 26.0664 23.7799 27.0351 24.6393C28.0117 25.4908 28.5 26.651 28.5 28.1198ZM25.4648 35.7252C25.4648 34.983 25.25 34.3893 24.8203 33.944C24.3906 33.4987 23.8125 33.276 23.0859 33.276C22.3672 33.276 21.793 33.4987 21.3633 33.944C20.9336 34.3815 20.7187 34.9752 20.7187 35.7252C20.7187 36.4518 20.9297 37.0377 21.3516 37.483C21.7734 37.9283 22.3594 38.151 23.1094 38.151C23.8437 38.151 24.418 37.9362 24.832 37.5065C25.2539 37.0768 25.4648 36.483 25.4648 35.7252ZM25.1133 28.2838C25.1133 27.6198 24.9375 27.0885 24.5859 26.6901C24.2344 26.2838 23.7383 26.0807 23.0976 26.0807C22.4648 26.0807 21.9726 26.276 21.6211 26.6666C21.2695 27.0573 21.0937 27.5963 21.0937 28.2838C21.0937 28.9635 21.2695 29.5104 21.6211 29.9244C21.9726 30.3385 22.4687 30.5455 23.1094 30.5455C23.75 30.5455 24.2422 30.3385 24.5859 29.9244C24.9375 29.5104 25.1133 28.9635 25.1133 28.2838ZM42.2812 28.1198C42.2812 28.9479 42.0742 29.6823 41.6601 30.3229C41.2461 30.9635 40.6758 31.4752 39.9492 31.858C40.7773 32.2565 41.4336 32.8073 41.918 33.5104C42.4023 34.2057 42.6445 35.026 42.6445 35.9713C42.6445 37.4869 42.1289 38.6862 41.0976 39.569C40.0664 40.444 38.6641 40.8815 36.8906 40.8815C35.1172 40.8815 33.7109 40.4401 32.6719 39.5573C31.6328 38.6744 31.1133 37.4791 31.1133 35.9713C31.1133 35.026 31.3555 34.2018 31.8398 33.4987C32.3242 32.7955 32.9766 32.2487 33.7969 31.858C33.0703 31.4752 32.5 30.9635 32.0859 30.3229C31.6797 29.6823 31.4766 28.9479 31.4766 28.1198C31.4766 26.6666 31.9609 25.5104 32.9297 24.651C33.8984 23.7838 35.2148 23.3502 36.8789 23.3502C38.5351 23.3502 39.8476 23.7799 40.8164 24.6393C41.793 25.4908 42.2812 26.651 42.2812 28.1198ZM39.2461 35.7252C39.2461 34.983 39.0312 34.3893 38.6016 33.944C38.1719 33.4987 37.5937 33.276 36.8672 33.276C36.1484 33.276 35.5742 33.4987 35.1445 33.944C34.7148 34.3815 34.5 34.9752 34.5 35.7252C34.5 36.4518 34.7109 37.0377 35.1328 37.483C35.5547 37.9283 36.1406 38.151 36.8906 38.151C37.625 38.151 38.1992 37.9362 38.6133 37.5065C39.0351 37.0768 39.2461 36.483 39.2461 35.7252ZM38.8945 28.2838C38.8945 27.6198 38.7187 27.0885 38.3672 26.6901C38.0156 26.2838 37.5195 26.0807 36.8789 26.0807C36.2461 26.0807 35.7539 26.276 35.4023 26.6666C35.0508 27.0573 34.875 27.5963 34.875 28.2838C34.875 28.9635 35.0508 29.5104 35.4023 29.9244C35.7539 30.3385 36.25 30.5455 36.8906 30.5455C37.5312 30.5455 38.0234 30.3385 38.3672 29.9244C38.7187 29.5104 38.8945 28.9635 38.8945 28.2838Z" fill="white"/>
</svg>
